<svg xmlns="http://www.w3.org/2000/svg" width="67" height="25" viewBox="0 0 67 25">
  <g id="Grupo_7" data-name="Grupo 7" transform="translate(-1758.969 -985.364)">
    <rect id="Retângulo_8" data-name="Retângulo 8" width="67" height="25" rx="10" transform="translate(1758.969 985.364)" fill="rgba(63,87,185,0.98)"/>
    <g id="Grupo_6" data-name="Grupo 6" transform="translate(1769.304 992.444)">
      <path id="Caminho_26" data-name="Caminho 26" d="M4.8,24a3.115,3.115,0,0,1,3.031-3.2,3.2,3.2,0,0,1,0,6.4A3.115,3.115,0,0,1,4.8,24Zm15.153,0a3.035,3.035,0,1,1,3.031,3.2A3.115,3.115,0,0,1,19.953,24Zm15.153,0a3.035,3.035,0,1,1,3.031,3.2A3.115,3.115,0,0,1,35.106,24Z" transform="translate(0 -18.762)" fill="#fff" fill-rule="evenodd"/>
      <path id="Caminho_27" data-name="Caminho 27" d="M0,0H45.967V10.477H0Z" fill="none"/>
    </g>
  </g>
</svg>
