<svg xmlns="http://www.w3.org/2000/svg" width="77.325" height="114.903" viewBox="0 0 77.325 114.903">
  <g id="Scene_Plants" data-name="Scene/Plants" transform="translate(-556.426 -437.959)">
    <path id="Leaf-Bottom" d="M40.912,89.5c1.121.781,2.544-.355,1.862-2.614-.731-2.418-3.138-2.246-4.5-2.082.136,0,.648,2.231.809,2.561A5.516,5.516,0,0,0,40.912,89.5ZM26.884,46.21C26.6,45.854,26.86,46.177,26.884,46.21ZM41.6,78.218a3.025,3.025,0,0,0,.046-3.134,2.231,2.231,0,0,0-2.637-.751c-.382.082-2.42.519-1.918,1.019a1.4,1.4,0,0,1-.2-.136q-.08-.391-.167-.779c.012-.012.022-.025.034-.038-.014.011-.023.022-.035.033a39.509,39.509,0,0,0-2.353-7.281,3.052,3.052,0,0,0,1.074.367,2.351,2.351,0,0,0,2.009-3.594c-1.217-2.1-2.924.408-4.213.843-1.353-2.732-2.832-5.335-4.374-7.842a.486.486,0,0,0,.2-.3,7.319,7.319,0,0,0,1.778,1.2c.789.2,2.4.228,2.949-.949a1.8,1.8,0,0,0-1-2.7c-1.256-.28-2.851.837-4.026,1.6a.342.342,0,0,0-.369.234l-.077.048c-1.561-2.492-3.175-4.893-4.778-7.24h.049a3.458,3.458,0,0,0,1.316.837,2.577,2.577,0,0,0,3.165-1.095,4.747,4.747,0,0,0,.12-4.83c-1.879-2.639-4.307,3.946-5.2,4.287-1.628-2.358-3.34-4.545-5.076-6.683a1.946,1.946,0,0,0,.589.142c1.638.114,5.358-3.432,3.255-6.434-1.833-2.615-3.677,2.873-5.021,4.851-1.635-1.991-3.278-3.967-4.88-6.029a2.877,2.877,0,0,0,2.535-.24,3.16,3.16,0,0,0,1.718-3.751c-.662-2-2.426-.915-3.339-.185a26.611,26.611,0,0,1-2.362,2.263A50.11,50.11,0,0,1,3.845,19.832a59.365,59.365,0,0,1-2.6-9.346A43.4,43.4,0,0,1,.091,2.154C-.371,7.709,1,14.218,2.411,19.03A46.358,46.358,0,0,0,7.68,30.681c-.425,2.492-4.56,6.384-1.946,8.445,1.388,1.089,2.705-1.024,2.931-3.164A13.786,13.786,0,0,0,8.08,31.31q1,1.553,2.072,3c.983,1.329,1.986,2.616,3,3.884-1.518,2.554-2.8,9.6-.627,10.545,3.214,1.4,1.386-7.9,1.108-9.654a.156.156,0,0,0-.144.1c.013-.163.028-.338.047-.515,1.937,2.414,3.9,4.776,5.805,7.255-.158.209-.394.978-.586,1.393A18.44,18.44,0,0,0,17.62,50.3c-.457,1.7-.863,4.383.522,5.243,1.506.937,2.108-2.11,2.061-3.894-.033-1.233-.279-2.387-.427-3.586-.046-.374.029-2.084-.265-1.326a5.8,5.8,0,0,0-.01-.6q.513.671,1.019,1.357a1,1,0,0,0-.022.207c0,.533.338.71.566.534.446.616.888,1.24,1.323,1.877.922,1.351,1.859,2.742,2.79,4.164-.183.281-.095.643-.265.939s-.517.481-.719.76a9.2,9.2,0,0,0-1.2,2.665c-.473,1.6-1.043,4.923.51,5.535,1.6.633,2.3-2.578,2.337-4.551.007-.383-.281-3.8-.457-5.032,1.723,2.645,3.423,5.4,4.974,8.209-.441.044-1.644,1.608-1.885,2.027-.585,1.023-1.5,3.25-.378,4.293.995.925,2.133-.633,2.5-2.084a31.746,31.746,0,0,0,.215-3.406c.643,1.194,1.258,2.4,1.833,3.61q.576,1.208,1.085,2.484a1.136,1.136,0,0,0-.2.355c-1.59.575-3.5,4.785-1.574,6.03.919.592,1.847-.869,2.25-2.035a23.421,23.421,0,0,0,.28-2.338,67,67,0,0,1,2.4,8.945.585.585,0,0,0-.256.547,6.886,6.886,0,0,0-1.85,2.853c-.31.884-.855,2.89.153,3.281,1.312.509,2.02-2.742,2.074-4.318.006-.183-.011-.712-.031-1.2a.275.275,0,0,0,.135-.015c.36,1.925.661,3.88.914,5.843-.693.426-.621,6.408-.124,7.218,1.111,1.815,1.762-1,1.658-2.446a13.019,13.019,0,0,0-1.272-4.562c-.066-.141-.049-.136-.058.07a.54.54,0,0,0-.068-.224c0-.9.028-1.833-.026-2.629-.154-2.279-.394-4.565-.707-6.8q-.114-.816-.253-1.616a8.3,8.3,0,0,0,1.684,1.549C39.646,78.729,40.861,79.234,41.6,78.218ZM0,2.154A10.084,10.084,0,0,1,.223,0C.12.7.047,1.416,0,2.154Z" transform="translate(599.599 539.885) rotate(-169)" fill="#f2f2f2" fill-rule="evenodd"/>
    <g id="Plant-Right" transform="translate(477.224 208.387)" opacity="0.7">
      <path id="Leaf-Me-Alone_" data-name="Leaf-Me-Alone!" d="M23.013,66.014c-4.7-.2-10.185-2.9-10.15-7.055.026-3.018.524-5.988.351-9.018a20.353,20.353,0,0,0-1.8-7.073c-.971-2.194-3.318-4.191-3.7-6.479a8.034,8.034,0,0,1,1.025-4.777c.936-1.629.538-1.528-.706-3.068A36.5,36.5,0,0,1,2.1,18.989C.156,13.988-.8,8.255.831,3.1,1.038,2.447,1.491.074,2.643,0c1.286-.079.519,1.235.395,1.67a23.853,23.853,0,0,0-1.347,8.1c.569,11.189,9.387,19.28,14.528,29.173.287.512.875,1.723,1.29,2.524.654,1.265,1.173,3.61,2.154,4.591,1.847,1.847.386-1.674.067-2.349-.4-.854-.851-1.764-1.28-2.52-1.957-3.5-4.151-7.32-6.173-10.926,10.905-1.059,17.06,9.95,19.033,17.011,1.626,5.817,2.739,19.19-8.3,18.737" transform="matrix(-0.995, 0.105, -0.105, -0.995, 118.259, 316.913)" fill="#69a1ac" fill-rule="evenodd"/>
      <path id="Leaf-Me-Alone_2" data-name="Leaf-Me-Alone!" d="M139.1,78.034c-6.747.51-11.079,4.754-13.095,10.691-1.087,3.2-1.212,6.485-1.815,9.773a20.576,20.576,0,0,1-6.683,12.218,12.354,12.354,0,0,0-2.675,3.411,14.547,14.547,0,0,0-3.088,4.207,7.445,7.445,0,0,0-.129,6.76,7,7,0,0,0,1.9,2.222,41.842,41.842,0,0,0-4.494,19.556c.113,4.049.32,8.1.563,12.144.065,1.086.436,2.879.993,1.058.51-1.666-.129-4.281-.189-6.021-.288-8.477-.534-16.185,3.127-24.105.384-.83.791-1.654,1.215-2.47a.851.851,0,0,0,.072-.047l.047.036c.027-.046.064-.1.107-.162a2.209,2.209,0,0,0,.329-.439,3.144,3.144,0,0,0,.694-1.209s0-.005,0-.008a114.326,114.326,0,0,1,7.513-10.125c-.02.024,2.876-3.735,2.428-1.656-.216,1-2.346,2.909-3.206,3.97a98.9,98.9,0,0,0-5.995,8.243,4.144,4.144,0,0,0-.858,1.31c-.141.254-.273.509-.4.732,6.58,2.072,11.7-2.1,15.188-6.957l.012-.017a21.482,21.482,0,0,1,3.509-3.734c2.267-1.77,4.7-2.082,7.37-2.953,7.291-2.375,10.391-11.383,11.376-18.067,1.111-7.541-4.323-19.1-13.809-18.36" transform="translate(-0.871 183.621)" fill="#89c5cc" fill-rule="evenodd"/>
      <path id="Leaf-Me-Alone_3" data-name="Leaf-Me-Alone!" d="M35.684.616c-9.673,5.634-15.462,14.244-20.3,22.4-5.4,9.11-9.61,18.495-11.57,28.348C2.526,57.838,1.053,64.333.337,70.859a51.681,51.681,0,0,0-.322,6.978c.005.191.142,5.383,1.418,4.309.726-.611-.128-5.384-.114-6.163A74.852,74.852,0,0,1,2.913,62.9c1.413-7.141,2.477-14.282,4.8-21.3a19.757,19.757,0,0,1,1.211-3.157c.571-1.068.019-.634,1.28-.948,1.225-.307,2.628-.1,3.916-.508,5.111-1.627,8.551-6.816,11.1-10.19a60.86,60.86,0,0,0,6.9-12.263,73.08,73.08,0,0,0,3.419-9.321A19.677,19.677,0,0,1,36.494,2.2c.123-.26.573-.695.6-.933.067-.5-.284-.841-.238-1.265q-.6.3-1.177.616" transform="translate(98.396 234.737) rotate(-8)" fill="#89c5cc" fill-rule="evenodd"/>
      <path id="Base" d="M38,328c0,15.6,11.575,28.247,25.853,28.247S89.707,343.6,89.707,328" transform="translate(54.405 -11.772)" fill="#89c5cc" fill-rule="evenodd"/>
      <path id="Leaf-Me-Alone_4" data-name="Leaf-Me-Alone!" d="M114.361,282.822H113a31.733,31.733,0,0,1,.5-4.236c1.092-5.363,4.505-13.24,11.992-14.111a23.281,23.281,0,0,1,2.523.022,5.251,5.251,0,0,1,1.925-.472c6.374-.39,13.493,3.881,16.567,8.325,2.479,3.583,2.061,8.289.53,12.1-1.025,2.549-3.263,6.183-6.994,6.218-4.668.044-4.894-4.748-4.984-7.549-.12-3.725-.687-6.969-4.22-9.508-.823-.591-1.723-1.112-2.555-1.695-1.3-.913-2.742-1.848-2.91-3.358-.231-2.083,1.184-2.458,3.346-2.071.369.066,4.081,1.45,3.532.356a2.535,2.535,0,0,0-1.554-.8,34.97,34.97,0,0,0-5.076-.265c-7.407,1.35-10.292,9.872-11.058,15.286C114.486,281.648,114.419,282.234,114.361,282.822Z" transform="translate(-26.072 50.386) rotate(-7)" fill="#69a1ac" fill-rule="evenodd"/>
    </g>
  </g>
</svg>
