<svg id="newspaper" xmlns="http://www.w3.org/2000/svg" width="48" height="48" viewBox="0 0 48 48">
  <path id="Caminho_126" data-name="Caminho 126" d="M10,42H34a8,8,0,0,0,8-8V10a4,4,0,0,0-4-4H18a4,4,0,0,0-4,4V36C14,39.31,13.31,42,10,42Z" fill="none" stroke="#e9e9e9" stroke-linecap="round" stroke-linejoin="round" stroke-width="3"/>
  <path id="Caminho_127" data-name="Caminho 127" d="M6,20a4,4,0,0,1,4-4h4V37c0,2.76-1.24,5-4,5s-4-2.24-4-5Z" fill="none" stroke="#e9e9e9" stroke-linecap="round" stroke-linejoin="round" stroke-width="3"/>
  <path id="Caminho_128" data-name="Caminho 128" d="M26,16a2,2,0,1,1-2-2A2.006,2.006,0,0,1,26,16Z" fill="none" stroke="#e9e9e9" stroke-linecap="round" stroke-width="3"/>
  <path id="Caminho_129" data-name="Caminho 129" d="M22,28H34" fill="none" stroke="#e9e9e9" stroke-linecap="round" stroke-width="3"/>
  <path id="Caminho_130" data-name="Caminho 130" d="M22,34h6" fill="none" stroke="#e9e9e9" stroke-linecap="round" stroke-width="3"/>
  <path id="Caminho_131" data-name="Caminho 131" d="M0,0H48V48H0Z" fill="none"/>
</svg>
