<svg id="icon" xmlns="http://www.w3.org/2000/svg" width="54.125" height="50.533" viewBox="0 0 54.125 50.533">
  <path id="Caminho_20" data-name="Caminho 20" d="M9.6,9.917a5.052,5.052,0,0,1,2.91-4.434V40.616a2.745,2.745,0,0,0,2.91,2.558H38.7a2.745,2.745,0,0,0,2.91-2.558V9.917A2.745,2.745,0,0,0,38.7,7.358H32.883V4.8H38.7c3.214,0,5.821,2.292,5.821,5.117v30.7c0,2.825-2.607,5.117-5.821,5.117H15.421c-3.214,0-5.821-2.292-5.821-5.117ZM15.421,4.8V21.429a1.278,1.278,0,0,0,.8,1.141,1.617,1.617,0,0,0,1.528-.117L22.7,19.19l4.948,3.262a1.617,1.617,0,0,0,1.528.117,1.278,1.278,0,0,0,.8-1.141V4.8Zm2.91,14.071V7.358h8.731V18.871l-3.492-2.3a1.618,1.618,0,0,0-1.746,0Z" transform="translate(0 0)" fill="#e9e9e9" stroke="#e9e9e9" stroke-width="1"/>
  <path id="Caminho_21" data-name="Caminho 21" d="M0,0H54.125V50.533H0Z" fill="none"/>
</svg>
