<svg id="stats_bars2" data-name="stats bars2" xmlns="http://www.w3.org/2000/svg" width="26.794" height="19.36" viewBox="0 0 26.794 19.36">
  <path id="Caminho_42" data-name="Caminho 42" d="M8.2,11.532H3.743A.721.721,0,0,0,3,12.223V24.669a.721.721,0,0,0,.743.691H8.2a.717.717,0,0,0,.743-.691V12.223A.717.717,0,0,0,8.2,11.532Zm0,12.446H3.743V18.446H8.2ZM15.625,8.766H11.169a.717.717,0,0,0-.743.691V24.669a.717.717,0,0,0,.743.691h4.456a.717.717,0,0,0,.743-.691V9.457A.717.717,0,0,0,15.625,8.766Zm0,15.212H11.169V17.063h4.456ZM23.051,6H18.6a.72.72,0,0,0-.743.691V24.669a.717.717,0,0,0,.743.691h4.456a.717.717,0,0,0,.743-.691V6.691A.72.72,0,0,0,23.051,6Zm0,17.978H18.6v-8.3h4.456Z" transform="translate(0 -6)" fill="#fff"/>
  <path id="Caminho_43" data-name="Caminho 43" d="M0,0H26.794V19.361H0Z" transform="translate(0 0)" fill="none"/>
</svg>
