<svg id="Grupo_45" data-name="Grupo 45" xmlns="http://www.w3.org/2000/svg" width="318.588" height="208.195" viewBox="0 0 318.588 208.195">
  <g id="Grupo_37" data-name="Grupo 37" transform="translate(0.348 137.194)">
    <path id="Caminho_96" data-name="Caminho 96" d="M75.312,300.053c-.451-.741-2.4.052-2.759-.62s1.454-1.691,2.489-4.023c.187-.421,1.363-3.071.492-3.889-1.65-1.55-9.2,4.847-11.844,2.754a34.772,34.772,0,0,0-2.74-2.866c-.7-.592-1.121-.86-1.529-.76-.58.141-.626.9-1.248,2.386-.932,2.231-1.484,2.1-2.027,3.877-.4,1.322-.311,2.09-.786,2.24-.672.212-1.29-1.19-2.141-1.064-.869.128-1.394,1.76-1.559,2.982-.311,2.293.552,3.807,1.031,5.4a13.237,13.237,0,0,1-.372,8.082L40.427,347.217c2.625-6.7,10.226-25.08,13.42-31.909.922-1.971,1.94-3.971,4.03-4.76,2.012-.76,4.776-.306,8.3-1.134.412-.1,1.553-.38,1.7-1.035.119-.542-.553-.844-.45-1.351.138-.68,1.459-.689,3.083-1.473a9.591,9.591,0,0,0,2.471-1.778c.185-.171,2.933-2.739,2.333-3.725h0Z" transform="translate(-19.197 -276.554)" fill="#f2f2f2"/>
    <path id="Caminho_97" data-name="Caminho 97" d="M9.985,339.4c-.5,0-.666,1.164-1.108,1.141s-.432-1.184-1.307-2.352c-.158-.211-1.153-1.538-1.815-1.358-1.256.342-.215,5.8-2.032,6.463a20.551,20.551,0,0,0-2.233.485c-.5.163-.756.288-.824.513-.1.318.271.559.841,1.285.854,1.09.627,1.315,1.366,2.089.549.574.962.752.9,1.022-.087.383-.971.274-1.153.717s.484,1.175,1.051,1.607a6.794,6.794,0,0,0,3.014,1.064,7.946,7.946,0,0,1,3.96,2.51L23.659,369.7c-2.617-3.191-9.673-12.13-12.188-15.629a4.538,4.538,0,0,1-1.233-3.3c.2-1.182,1.224-2.374,1.824-4.3.07-.225.257-.853-.031-1.111-.238-.213-.584.021-.81-.175-.3-.263.074-.9.148-1.9a5.207,5.207,0,0,0-.182-1.7c-.033-.138-.532-2.194-1.2-2.191h0Z" transform="translate(-0.651 -298.7)" fill="#f2f2f2"/>
    <path id="Caminho_98" data-name="Caminho 98" d="M36.674,335.427l-.3-2.638.138-.2a4.8,4.8,0,0,0,.971-2.685c0-.136-.006-.273-.012-.411a4.032,4.032,0,0,1,.307-2.032c.205-.445.781-1.474,1.647-1.346a.991.991,0,0,1,.543.259l.061-.094a2.932,2.932,0,0,1,.689-.739,3.439,3.439,0,0,0,.577-.569c.112-.136.2-.256.274-.357a1.272,1.272,0,0,1,1.033-.661,1.351,1.351,0,0,1,1.031.764,6.3,6.3,0,0,1,.6,1.154,1.968,1.968,0,0,0,.1.227c.178.255,1.622.017,2.166-.07,1.222-.2,2.279-.371,2.715.381.312.538.08,1.248-.71,2.169a4.377,4.377,0,0,1-.741.675.887.887,0,0,1,.435.554h0c.165.639-.4,1.28-1.675,1.907a4.576,4.576,0,0,1-1.341.466,5.4,5.4,0,0,1-.752.065.852.852,0,0,1-.11.391,1.353,1.353,0,0,1-1.393.546,11.173,11.173,0,0,1-1.972-.31,4.9,4.9,0,0,0-1.245-.181c-.615.048-1.089.529-1.646,1.151l-1.389,1.583h0Z" transform="translate(-17.305 -292.534)" fill="#f2f2f2"/>
    <path id="Caminho_99" data-name="Caminho 99" d="M28.3,306.762l-2.54.955-.233-.08a5.125,5.125,0,0,0-2.91-.235c-.135.034-.269.075-.4.116a4.331,4.331,0,0,1-2.093.226c-.493-.081-1.66-.363-1.753-1.212a.937.937,0,0,1,.119-.578l-.109-.034a3,3,0,0,1-.908-.463,3.5,3.5,0,0,0-.711-.4c-.164-.071-.3-.124-.423-.168a1.26,1.26,0,0,1-.918-.806,1.307,1.307,0,0,1,.5-1.167,6.472,6.472,0,0,1,.993-.858,2.039,2.039,0,0,0,.2-.153c.208-.232-.395-1.534-.619-2.025-.507-1.1-.946-2.056-.311-2.657.454-.431,1.218-.392,2.332.119a4.435,4.435,0,0,1,.858.527.886.886,0,0,1,.439-.551h0c.593-.317,1.371.052,2.316,1.1a4.391,4.391,0,0,1,.8,1.146,5.053,5.053,0,0,1,.255.693.913.913,0,0,1,.416,0c.455.11.763.5.9,1.175a10.394,10.394,0,0,1,.193,1.938,4.552,4.552,0,0,0,.136,1.22c.2.568.8.893,1.56,1.26l1.923.909Z" transform="translate(-7.524 -279.575)" fill="#f2f2f2"/>
    <path id="Caminho_100" data-name="Caminho 100" d="M36.674,290.321l-.3-2.638.138-.2a4.8,4.8,0,0,0,.971-2.685c0-.136-.006-.273-.012-.411a4.033,4.033,0,0,1,.307-2.032c.205-.445.781-1.474,1.647-1.346a.991.991,0,0,1,.543.259l.061-.094a2.932,2.932,0,0,1,.689-.739,3.436,3.436,0,0,0,.577-.569c.112-.136.2-.256.274-.357a1.272,1.272,0,0,1,1.033-.661,1.351,1.351,0,0,1,1.031.764,6.3,6.3,0,0,1,.6,1.154,1.97,1.97,0,0,0,.1.227c.178.255,1.622.017,2.166-.07,1.222-.2,2.279-.371,2.715.381.312.538.08,1.248-.71,2.169a4.375,4.375,0,0,1-.741.675.887.887,0,0,1,.435.554h0c.165.639-.4,1.28-1.675,1.907a4.577,4.577,0,0,1-1.341.466,5.4,5.4,0,0,1-.752.065.852.852,0,0,1-.11.391,1.353,1.353,0,0,1-1.393.546,11.184,11.184,0,0,1-1.972-.31,4.9,4.9,0,0,0-1.245-.181c-.615.048-1.089.529-1.646,1.151l-1.389,1.583h0Z" transform="translate(-17.305 -270.906)" fill="#f2f2f2"/>
    <path id="Caminho_101" data-name="Caminho 101" d="M35.385,341.819l-.567-.346-.137-.638.137.638-.661.074c-.01-.06-.046-.2-.1-.413a90.2,90.2,0,0,1-1.95-10.422,103.659,103.659,0,0,1-.884-12.06c-.061-4.063.136-7.139.294-9.612.12-1.865.265-3.64.407-5.37a97.936,97.936,0,0,0,.47-13.819,12.547,12.547,0,0,0-1.528-5.714,12.219,12.219,0,0,0-3.2-3.656l.833-1.022a13.554,13.554,0,0,1,3.535,4.05,13.743,13.743,0,0,1,1.691,6.272,98.891,98.891,0,0,1-.474,13.991c-.141,1.723-.286,3.491-.4,5.348-.157,2.449-.352,5.5-.291,9.51a102.393,102.393,0,0,0,.872,11.912,88.771,88.771,0,0,0,1.924,10.279c.155.62.188.75.029,1h0Z" transform="translate(-13.249 -271.2)" fill="#f2f2f2"/>
    <path id="Caminho_102" data-name="Caminho 102" d="M18.6,274.944c-.055,0-.11,0-.167-.005a4.29,4.29,0,0,1-3.136-1.976,9,9,0,0,1-1.118-2.6,15.95,15.95,0,0,1-.616-2.694,2.583,2.583,0,0,1,.073-1.683,2.023,2.023,0,0,1,.942-.839.72.72,0,0,1,.052-.385c.228-.544.834-.473,1.162-.438a3.369,3.369,0,0,0,.6.036,1.71,1.71,0,0,0,.826-.271,3.775,3.775,0,0,1,1.119-.429,4.083,4.083,0,0,1,2.1.163c1.447.47,2.16,1.567,2.985,2.837a9.841,9.841,0,0,1,1.1,2.453,2.848,2.848,0,0,1,.15,1.628c-.165.623-.553.979-1.54,1.767A17.9,17.9,0,0,1,21.144,274a5.1,5.1,0,0,1-2.545.948h0Z" transform="translate(-6.63 -263.589)" fill="#f2f2f2"/>
  </g>
  <path id="Caminho_103" data-name="Caminho 103" d="M311.2,397.727h0a.443.443,0,0,1-.448.437H0v-.874H310.751A.443.443,0,0,1,311.2,397.727Z" transform="translate(0 -190.506)" fill="#e6e6e6"/>
  <g id="Grupo_44" data-name="Grupo 44" transform="translate(24.757 0.628)">
    <g id="Grupo_38" data-name="Grupo 38" transform="translate(182.507 4.776)">
      <path id="Caminho_104" data-name="Caminho 104" d="M402.54,88.694s-16.727,1.962-13.906-10.935,18.82-36.718,18.82-36.718l9.078,4.965L406.109,70.031l4.487,3.452L402.54,88.694Z" transform="translate(-388.313 -25.084)" fill="#a0616a"/>
      <path id="Caminho_105" data-name="Caminho 105" d="M464.013,101.065l-2.357,18.9-59.064-.282,11.862-20.1Z" transform="translate(-394.971 -53.156)" fill="#6c63ff"/>
      <path id="Caminho_121" data-name="Caminho 121" d="M11.174.314c6.107.073,11.1,3.352,11.142,7.324S17.452,14.77,11.345,14.7.25,11.345.2,7.373,5.067.241,11.174.314Z" transform="matrix(0.582, -0.813, 0.813, 0.582, 15.389, 17.63)" fill="#a0616a"/>
    </g>
    <rect id="Retângulo_20" data-name="Retângulo 20" width="82.041" height="3.626" transform="translate(245.87 206.799) rotate(-90)" fill="#3f3d56"/>
    <rect id="Retângulo_21" data-name="Retângulo 21" width="82.041" height="3.626" transform="translate(228.463 206.799) rotate(-90)" fill="#3f3d56"/>
    <rect id="Retângulo_22" data-name="Retângulo 22" width="133.671" height="3.626" transform="translate(130.913 206.799) rotate(-90)" fill="#e6e6e6"/>
    <rect id="Retângulo_23" data-name="Retângulo 23" width="82.041" height="3.626" transform="translate(189.298 206.799) rotate(-90)" fill="#3f3d56"/>
    <rect id="Retângulo_24" data-name="Retângulo 24" width="82.041" height="3.626" transform="translate(175.421 206.799) rotate(-90)" fill="#3f3d56"/>
    <path id="Caminho_106" data-name="Caminho 106" d="M428,237.5h-70.03l-13.434,18.581,69.683,4.051Z" transform="translate(-185.398 -114.514)" fill="#3f3d56"/>
    <g id="Grupo_40" data-name="Grupo 40" transform="translate(60.733 34.506)">
      <g id="Grupo_39" data-name="Grupo 39">
        <path id="Caminho_107" data-name="Caminho 107" d="M223.836,102.947l.318-13.475-42.266,3.17-.216,9.131Z" transform="translate(-170.193 -78.037)" fill="#a0616a"/>
        <path id="Caminho_108" data-name="Caminho 108" d="M185.2,80.5l-2.021,4.742-2.9.09s3.4,1.015,4.343,7.038l-2.789.815a11.082,11.082,0,0,1-7.687,2.2l-13.427-1.1-.052-4.564,9.28-1.046s2.068-1.327-8.168-6.78c0,0-3.391-2.022-.341-12.007a3.383,3.383,0,0,1,3.153-2.389,1.724,1.724,0,0,1,1.872,1.248c.771,2.5-.009,4.988,2.111,6.547S185.2,80.5,185.2,80.5Z" transform="translate(-160.166 -67.503)" fill="#2f2e41"/>
      </g>
      <path id="Caminho_109" data-name="Caminho 109" d="M367.138,147.688s-14.583,24.187-47.582,19.828a25.523,25.523,0,0,1-18.7-12.3c-7.608-12.963-19.16-35.661-15.415-48.514l-55.81-10.387-4.4-13.217,60.4-7.651a13.4,13.4,0,0,1,13.253,6.416l29.423,50.106,8.771.934,30.053,14.782Z" transform="translate(-190.505 -71.262)" fill="#2f2e41"/>
    </g>
    <g id="Grupo_42" data-name="Grupo 42" transform="translate(60.69 40.739)">
      <g id="Grupo_41" data-name="Grupo 41" transform="translate(0 3.211)">
        <path id="Caminho_110" data-name="Caminho 110" d="M225.465,113.563l-.795-13.457L182.8,106.582l.538,9.118Z" transform="translate(-170.678 -92.58)" fill="#a0616a"/>
        <path id="Caminho_111" data-name="Caminho 111" d="M185.378,97l-1.624,4.886-2.886.318s3.472.745,4.91,6.675l-2.713,1.032a11.039,11.039,0,0,1-7.48,2.8l-13.473-.038-.428-4.546,9.163-1.77s1.952-1.484-8.7-6.118c0,0-3.547-1.749-1.331-11.941a3.366,3.366,0,0,1,2.946-2.629,1.732,1.732,0,0,1,1.969,1.1c.975,2.429.4,4.973,2.644,6.36s17,3.877,17,3.877Z" transform="translate(-160.087 -85.647)" fill="#2f2e41"/>
      </g>
      <path id="Caminho_112" data-name="Caminho 112" d="M372.165,145.372s-12.54,25.252-45.792,23.5a25.652,25.652,0,0,1-19.651-10.79c-8.653-12.324-22.04-34.043-19.367-47.147l-56.487-5.975-5.473-12.829,59.574-12.365a13.458,13.458,0,0,1,13.74,5.355l33.461,47.636,8.82.243,31.175,12.376Z" transform="translate(-190.536 -79.477)" fill="#2f2e41"/>
    </g>
    <path id="Caminho_113" data-name="Caminho 113" d="M426.22,1.206l-2.9,2.122,15.231,20.51,2.9-.707Z" transform="translate(-222.127 -1.206)" fill="#3f3d56"/>
    <path id="Caminho_114" data-name="Caminho 114" d="M468.421,88.061l16.681-.707,7.253,31.826s-15.231,55.873-33.363,53.751c0,0-11.242-8.133-11.242-10.962s-15.231-9.9-15.231-9.9l-3.626-12.023,10.879-16.267a38.149,38.149,0,0,1,18.857-19.8l9.791-15.913Z" transform="translate(-224.726 -42.515)" fill="#6c63ff"/>
    <path id="Caminho_115" data-name="Caminho 115" d="M194.7,136.271H46.382v3.537H118.91V272.771h3.626V139.808H194.7Z" transform="translate(-46.382 -65.972)" fill="#e6e6e6"/>
    <ellipse id="Elipse_6" data-name="Elipse 6" cx="19.583" cy="19.096" rx="19.583" ry="19.096" transform="translate(232.815 4.525)" fill="#a0616a"/>
    <path id="Caminho_116" data-name="Caminho 116" d="M379.384,93.468l-13.677,5.3,26.836,34.656,9.429-7.072Z" transform="translate(-195.266 -45.447)" fill="#e6e6e6"/>
    <g id="Grupo_43" data-name="Grupo 43" transform="translate(183.727 59.337)">
      <path id="Caminho_117" data-name="Caminho 117" d="M454.3,193.506s-5.077,15.665-15.956,7.833-26.518-31.879-26.518-31.879l8.386-6.012,18.132,19.179,5.077-2.559L454.3,193.506Z" transform="translate(-400.494 -138.341)" fill="#a0616a"/>
      <path id="Caminho_118" data-name="Caminho 118" d="M485.439,115.21l16.681,9.9-24.659,52.337L461.5,156.231Z" transform="translate(-423.659 -115.21)" fill="#6c63ff"/>
      <path id="Caminho_122" data-name="Caminho 122" d="M7.374.184C11.355.227,14.636,5.2,14.7,11.295s-3.106,11-7.087,10.954S.354,17.231.288,11.138,3.394.141,7.374.184Z" transform="translate(0 15.959) rotate(-30)" fill="#a0616a"/>
    </g>
    <path id="Caminho_119" data-name="Caminho 119" d="M439.035,140.287c5.026-16.067,10.419-21.151,16.09-17.968a8.7,8.7,0,0,1,3.086,12.122c-6.447,10.663-19.733,35.1-16.965,51.288,0,0,4.352,22.632-30.462,22.632s-68.176-7.78-68.176-7.78l18.132-2.829,41.234,2.872c9.421.656,17.361-7.2,16.1-16.333q-.062-.452-.148-.914c-2.067-11.087,21.107-43.091,21.107-43.091Z" transform="translate(-184.496 -58.85)" fill="#3f3d56"/>
  </g>
  <path id="Caminho_120" data-name="Caminho 120" d="M493.143,16.333a6.479,6.479,0,0,0,6.661,8.595l.113-.007h0a10.706,10.706,0,0,1,.214,13.373h0a36.953,36.953,0,0,0,2.424,15.079l5.2,13.524,8.006-3.643,3.8,9.889,22.354-11.23L528.369,32.186l-4.135-16.127C521.292,4.586,509.29-2.32,497.569.716l-8.993,2.329a12.526,12.526,0,0,0-8.98,15.93h0l13.548-2.642" transform="translate(-223.329)" fill="#2f2e41"/>
</svg>
