<svg xmlns="http://www.w3.org/2000/svg" width="558" height="1043.914" viewBox="0 0 558 1043.914">
  <g id="Symbols" transform="translate(0 0.726)">
    <g id="Scene_Plants" data-name="Scene/Plants" transform="translate(0 -0.812)">
      <path id="Leaf-Top" d="M264.472,20.321c7.177-2.747,16.337,1.355,12.005,9.386-4.64,8.6-20.092,7.9-28.8,7.267.876,0,4.11-7.934,5.137-9.106A29.243,29.243,0,0,1,264.472,20.321ZM175.306,176.764C172.729,178.531,175.095,176.931,175.306,176.764ZM270.478,61.69c4.045,3.063,3.978,8.1.371,11.317-4.293,3.835-11.738,3.3-17.279,2.618-2.507-.309-15.889-1.962-12.6-3.746a11.792,11.792,0,0,0-1.333.484q-.516,1.41-1.077,2.806c.076.045.14.093.223.138-.088-.04-.15-.082-.229-.122a104.212,104.212,0,0,1-15.278,26.2,32.045,32.045,0,0,1,7.04-1.287c7.051-.422,21.539,5.175,13.259,13.046-7.936,7.545-19.187-1.577-27.657-3.194A366.879,366.879,0,0,1,187.393,138.1a2.232,2.232,0,0,1,1.34,1.1c3.926-1.527,8.054-3.789,11.638-4.273,5.174-.7,15.709-.735,19.365,3.532,4.5,5.25-.823,9.047-6.5,9.713-8.232.968-18.723-3.123-26.448-5.92a2.793,2.793,0,0,1-2.424-.857c-.17-.06-.341-.118-.507-.175-10.182,8.941-20.721,17.55-31.184,25.962l.324,0a28.953,28.953,0,0,1,8.613-2.975c7.091-1.151,15.339-.73,20.788,4.065,5.429,4.775,7.021,12.714.894,17.44-12.269,9.462-28.341-14.4-34.208-15.665-10.629,8.454-21.81,16.288-33.152,23.944a21.6,21.6,0,0,1,3.858-.493c10.742-.352,35.225,12.582,21.5,23.342-11.965,9.377-24.186-10.5-33.045-17.694-10.683,7.13-21.419,14.2-31.879,21.589A32.837,32.837,0,0,1,93,221.7c5.99,1.947,15.577,6.524,11.351,13.6-4.3,7.2-15.891,3.218-21.9.551C79.175,234.4,72.7,229.725,66.91,227.6c-16.736,12.589-31.4,26.649-42.83,43.517A146.822,146.822,0,0,0,7.214,304.759c-2.64,7.5-7.725,20.074-7.367,30.038-3.155-20.072,5.714-43.52,14.843-60.839,8.4-15.927,20.425-29.666,34.31-41.873-2.844-9.012-30.054-23.21-12.948-30.556,9.081-3.882,17.767,3.794,19.3,11.524,1.05,5.314-1.324,11.8-3.743,16.775q6.543-5.572,13.524-10.741c6.417-4.764,12.975-9.372,19.589-13.914-10.011-9.273-18.6-34.74-4.342-38.091,21.053-4.932,9.267,28.586,7.482,34.889a1.212,1.212,0,0,1-.95-.376c.086.59.189,1.223.319,1.862,12.655-8.648,25.484-17.1,37.924-25.983-1.038-.762-2.6-3.545-3.871-5.05a54.717,54.717,0,0,1-7.505-10.811c-3.034-6.151-5.759-15.854,3.308-18.908,9.861-3.33,13.878,7.694,13.6,14.129-.189,4.452-1.779,8.607-2.722,12.931-.294,1.348.238,7.523-1.71,4.777a11.482,11.482,0,0,1-.053,2.179q3.353-2.4,6.658-4.86a2.124,2.124,0,0,1-.146-.75c-.012-1.923,2.2-2.549,3.7-1.908q4.367-3.309,8.64-6.729c6.021-4.845,12.132-9.832,18.209-14.934-1.206-1.023-.636-2.322-1.756-3.4s-3.4-1.755-4.729-2.769a30.57,30.57,0,0,1-7.94-9.663c-3.136-5.795-6.952-17.808,3.226-19.964,10.489-2.226,15.14,9.389,15.43,16.516a161.7,161.7,0,0,1-2.885,18.147c11.247-9.483,22.337-19.355,32.449-29.456-2.894-.174-10.824-5.862-12.407-7.384-3.863-3.712-9.889-11.785-2.574-15.511,6.5-3.3,14,2.361,16.431,7.614a64.3,64.3,0,0,1,1.484,12.3c4.191-4.289,8.2-8.614,11.947-12.967q3.749-4.341,7.061-8.93a4.52,4.52,0,0,1-1.329-1.288c-10.442-2.132-23.09-17.4-10.457-21.825,6.015-2.1,12.136,3.2,14.8,7.426.547.864,1.283,5.1,1.885,8.449A163.215,163.215,0,0,0,239.449,52.63a2.133,2.133,0,0,1-1.7-1.984c-4.972-2.85-8.895-5.212-12.2-10.367-2.053-3.2-5.67-10.462.934-11.837,8.592-1.789,13.306,9.97,13.7,15.662.046.661-.058,2.57-.178,4.318a3.211,3.211,0,0,1,.882.06c2.319-6.937,4.25-13.985,5.864-21.062-4.556-1.561-4.213-23.152-.972-26.061,7.248-6.513,11.581,3.664,10.935,8.891-.762,6.162-4.22,11.624-8.245,16.422-.433.508-.315.488-.381-.254a1.407,1.407,0,0,1-.443.807,83.186,83.186,0,0,1-.11,9.49,195.976,195.976,0,0,1-4.485,24.528q-.732,2.941-1.624,5.825a55.378,55.378,0,0,1,11.015-5.531C257.642,59.776,265.6,58,270.478,61.69ZM-.946,333.97A14.057,14.057,0,0,0,1.1,341.149,36.189,36.189,0,0,1-.946,333.97Z" transform="translate(155.259 15.363) rotate(-3)" fill="#c1dee2" fill-rule="evenodd" opacity="0.2"/>
      <g id="Plant-Left" transform="translate(0 92.68)" opacity="0.5">
        <path id="Leaf" d="M243.446,130c8.4-10.735,24-38,35.83-41.835,7.62-2.471,5.4,23.087,5.492,27.96.366,18.854-1.682,37.589-4.212,56.284-4.56,33.719-19.466,63.746-39.912,92.443-10.52,14.766-22.862,29.713-39.954,38.925-7.866,4.244-17.332,4.954-25.1,8.61-9.05,4.255-4.122.815-8.2,9.261-5.662,11.728-7.474,26.857-10.094,39.37-12.03,57.441-41.158,361.095-36.108,419.523.448,5.179-7.612,6.417-8.016.095-2.138-33.522,16.37-265.669,25.71-341.587S157.668,296.063,167.142,269.8c11.5-31.867,32.256-70.186,49.538-99.9A348.241,348.241,0,0,1,243.446,130Z" transform="translate(113 69.658)" fill="#69a1ac" fill-rule="evenodd"/>
        <path id="Leaf-2" data-name="Leaf" d="M309.828,321.081c21.87-14.383,45.544,12.761,25.752,27.146-10.94,7.951-22.378,5.124-28.816-1.5-4.18,4.565-8.092,9.338-11.852,13.367-11.454,12.285-22.278,24.86-32.624,37.728C240.8,424.556,222.378,452.8,203.12,480.53c-19,27.368-37.856,54.876-55.082,82.937C133.446,587.241,114,615.209,109,641.273c7.58-55.277,36.344-108.408,70.6-157.136,33.974-48.331,72.962-101.112,125.566-139.253C299.808,337.83,299.66,327.763,309.828,321.081Z" transform="translate(109 250.926)" fill="#c1dee2" fill-rule="evenodd"/>
        <path id="Leaf-3" data-name="Leaf" d="M3.826,244.055C16.065,246.2,36.062,271,46.151,280.447A365.958,365.958,0,0,1,79.27,316.185a597.1,597.1,0,0,1,58.6,85.615c27.365,48.786,49.288,98.867,65.2,151.993,9.74,32.519,16.046,66.225,19.782,99.7.706,6.313,8.094,54.979-2.552,56.291-9.574,1.181-6.616-36.953-7.078-42.141C208,609.117,192.354,552.176,170.6,497.015c-4.739-12.016-9.142-26.734-16.721-37.548-5.458-7.788-.039-5.072-9.631-8.019-8.236-2.533-17.619-1.913-26.053-5.015C99.871,439.7,85.2,426.639,72.342,413.5c-24.99-25.542-44.794-53.174-55.117-85.9-5.726-18.145-10.989-36.4-13.909-55.1C2.561,267.654-4.056,242.674,3.826,244.055Z" transform="translate(0 193.142)" fill="#69a1ac" fill-rule="evenodd"/>
        <path id="Leaf-4" data-name="Leaf" d="M40.123,24.573c46.1,71.617,83.983,150.286,108.444,229.965,14.821,48.277,25.185,97.818,35.483,147,15.944,76.152,31.026,152.3,35.316,229.8,4.316,77.953,12.85,167.864-15.644,242.945,14.234-76.227.682-157.367-1.718-234.068-1.146-36.616-4.468-72.874-8.828-109.276-4.23-35.312-11.139-70.455-17.574-105.489q-4.7-25.594-9.778-51.126c-1-5.081-1.423-20.155-5.021-23.625-3.621-3.494-22.094-4.918-27.894-7.482-11.679-5.161-22.665-12.494-32.387-20.243-18.638-14.854-34.852-34.262-47.65-53.394-29.61-44.266-41.449-98.289-40.85-149.556C12.136,110.07,30.007,2.884,22.83,1.408Q23.478.728,24.056,0C29.49,8.149,34.822,16.354,40.123,24.573Z" transform="translate(12)" fill="#89c5cc" fill-rule="evenodd"/>
        <path id="Leaf-5" data-name="Leaf" d="M439.692,160.964c.712-.919,5.342-7.31,3.01-6.9,4.746-.833-6.528,7.048,5.3,2.213-5.616,4.751-2.374,10.923-2.3,17.315.122,10.382-1.816,20.676-4,30.835a195.659,195.659,0,0,1-16.046,46.6c-16.254,32.547-43.854,63.878-76.62,84.227-16.176,10.045-32.028,13.467-50.476,18.091-11.654,2.922-12.578,8.322-18.764,18.451-12.876,21.1-25.524,42.118-36.882,63.927-13.56,26.044-26.724,52.115-39.142,78.616C161.938,603.605,127.89,696.087,110.01,791.8c-.438-56.4,14.128-114.49,32.5-168.249,13.384-39.167,30.806-76.924,49.39-114.3,4.5-9.053,11.326-20.7,13.24-30.7,1.338-7-2.756-13.74-4.63-21.119-7.306-28.731-6.784-60.92-.368-89.806,7.076-31.852,27.536-46.636,62.148-51.147,12.658-1.652,28.748-1.046,40.354-5.882,12.646-5.264,17.862-22.57,25.054-33.678a464.628,464.628,0,0,1,68.612-83.6,215.489,215.489,0,0,1,23.466-19.34C425.026,170.219,436.114,165.591,439.692,160.964Z" transform="translate(110 121.901)" fill="#89c5cc" fill-rule="evenodd"/>
        <path id="Base" d="M85.792,476H208.627c5.522,0,10,4.011,10,8.958a7.947,7.947,0,0,1-.108,1.306l-9.494,57.669c-2.894,17.579-19.734,30.6-39.572,30.6H124.965c-19.837,0-36.678-13.025-39.572-30.6L75.9,486.264c-.806-4.893,2.97-9.447,8.434-10.169A11.34,11.34,0,0,1,85.792,476Z" transform="translate(75.791 376.784)" fill="#c1dee2" fill-rule="evenodd"/>
      </g>
    </g>
  </g>
</svg>
